<svg width="370" height="36" viewBox="0 0 370 36" fill="none" xmlns="http://www.w3.org/2000/svg">
<path d="M99.11 25.0499C97.79 31.3799 93.03 35.9999 84.55 35.9999C73.81 35.9999 68.76 28.3899 68.76 18.7699C68.76 9.14994 74.01 1.18994 84.89 1.18994C93.91 1.18994 98.27 6.43994 99.11 12.1399H91.81C91.07 9.48994 89.26 6.88994 84.65 6.88994C78.62 6.88994 76.32 12.3399 76.32 18.5299C76.32 24.2299 78.33 30.2599 84.85 30.2599C89.65 30.2599 91.12 27.0699 91.76 25.0599H99.11V25.0499Z" fill="white"/>
<path d="M136.46 18.4699C136.46 27.8999 130.82 35.9999 119.84 35.9999C108.86 35.9999 103.66 28.2899 103.66 18.5699C103.66 8.84994 109.79 1.18994 120.28 1.18994C130.18 1.18994 136.46 8.10994 136.46 18.4699ZM111.21 18.4199C111.21 25.0499 114.1 30.0599 120.08 30.0599C126.6 30.0599 128.9 24.6099 128.9 18.5699C128.9 12.1399 126.25 7.12994 119.98 7.12994C113.71 7.12994 111.2 11.8399 111.2 18.4199H111.21Z" fill="white"/>
<path d="M205.24 25.0499C203.92 31.3799 199.16 35.9999 190.68 35.9999C179.94 35.9999 174.89 28.3899 174.89 18.7699C174.89 9.14994 180.14 1.18994 191.02 1.18994C200.04 1.18994 204.4 6.43994 205.24 12.1399H197.94C197.2 9.48994 195.39 6.88994 190.78 6.88994C184.75 6.88994 182.45 12.3399 182.45 18.5299C182.45 24.2299 184.46 30.2599 190.98 30.2599C195.78 30.2599 197.25 27.0699 197.89 25.0599H205.24V25.0499Z" fill="white"/>
<path d="M211.46 1.68018H218.76V14.8402H232.39V1.68018H239.69V35.5102H232.39V20.8802H218.76V35.5102H211.46V1.68018Z" fill="white"/>
<path d="M254.5 7.67018H244.21V1.68018H272.06V7.67018H261.81V35.5102H254.51V7.67018H254.5Z" fill="white"/>
<path d="M299.85 20.9302H283.67V29.5202H301.51L300.63 35.5102H276.56V1.68018H300.53V7.67018H283.67V14.8902H299.85V20.9302Z" fill="white"/>
<path d="M335.54 25.0499C334.22 31.3799 329.46 35.9999 320.98 35.9999C310.24 35.9999 305.19 28.3899 305.19 18.7699C305.19 9.14994 310.44 1.18994 321.32 1.18994C330.34 1.18994 334.7 6.43994 335.54 12.1399H328.24C327.5 9.48994 325.69 6.88994 321.08 6.88994C315.05 6.88994 312.75 12.3399 312.75 18.5299C312.75 24.2299 314.76 30.2599 321.28 30.2599C326.08 30.2599 327.55 27.0699 328.19 25.0599H335.54V25.0499Z" fill="white"/>
<path d="M341.76 1.68018H349.06V14.8402H362.69V1.68018H369.99V35.5102H362.69V20.8802H349.06V35.5102H341.76V1.68018Z" fill="white"/>
<path d="M159.99 1.68018H150.82L139.35 35.5102H146.56C148.47 29.3702 154.31 10.2702 155.14 6.93018H155.19C156.02 9.97018 161.91 28.3402 164.31 35.5102H172.01L159.99 1.68018Z" fill="white"/>
<path d="M56.6901 0H22.2601C12.3301 0 2.55007 8.06 0.420066 18C-1.71993 27.94 4.60007 36 14.5201 36H25.4101C26.8801 36 28.3301 34.81 28.6501 33.33L30.1701 26.27C30.4901 24.8 29.5501 23.6 28.0801 23.6H15.9701C13.2101 23.6 11.2601 21.47 11.7701 18.71C12.3001 15.85 15.0901 13.51 17.9301 13.51H36.9701C38.4401 13.51 39.3801 14.7 39.0601 16.18L35.3701 33.34C35.0501 34.81 35.9901 36.01 37.4601 36.01H46.2901C47.7601 36.01 49.2101 34.82 49.5301 33.34L53.2201 16.18C53.5401 14.71 54.9901 13.51 56.4601 13.51C57.9301 13.51 59.3801 12.32 59.7001 10.84L62.0301 0H56.7001L56.6901 0Z" fill="white"/>
</svg>
